<mxfile host="app.diagrams.net" modified="2023-01-13T09:25:51.884Z" agent="5.0 (Windows NT 10.0; Win64; x64) AppleWebKit/537.36 (KHTML, like Gecko) Chrome/109.0.0.0 Safari/537.36" etag="14zZf7s0TXFDrmdIUnko" version="20.8.5" type="github">
  <diagram name="Page-1" id="c37626ed-c26b-45fb-9056-f9ebc6bb27b6">
    <mxGraphModel dx="2609" dy="842" grid="1" gridSize="10" guides="1" tooltips="1" connect="1" arrows="1" fold="1" page="1" pageScale="1" pageWidth="1100" pageHeight="850" background="none" math="0" shadow="0">
      <root>
        <mxCell id="0" />
        <mxCell id="1" parent="0" />
        <mxCell id="S-VgMTXi0rojGaED3WKQ-2" value="Réseaux Virtuels" style="whiteSpace=wrap;html=1;rounded=0;shadow=0;comic=0;strokeWidth=1;fontFamily=Verdana;fontSize=14;fillColor=#f8cecc;strokeColor=#b85450;verticalAlign=bottom;fontStyle=1" vertex="1" parent="1">
          <mxGeometry x="-621" y="390" width="1240" height="300" as="geometry" />
        </mxCell>
        <mxCell id="1c7a67bf8fd3230f-83" value="Réseau Salle I14" style="whiteSpace=wrap;html=1;rounded=0;shadow=0;comic=0;strokeWidth=1;fontFamily=Verdana;fontSize=14;fillColor=#fff2cc;strokeColor=#d6b656;verticalAlign=top;fontStyle=1" parent="1" vertex="1">
          <mxGeometry x="-621" y="120" width="1240" height="260" as="geometry" />
        </mxCell>
        <mxCell id="vLjDbiqeGYyuWvh9xT9g-1" value="172.16.0.1" style="shape=mxgraph.cisco.routers.router;html=1;pointerEvents=1;dashed=0;fillColor=#036897;strokeColor=#ffffff;strokeWidth=2;verticalLabelPosition=bottom;verticalAlign=top;align=center;outlineConnect=0;" parent="1" vertex="1">
          <mxGeometry x="-40" y="160" width="78" height="53" as="geometry" />
        </mxCell>
        <mxCell id="vLjDbiqeGYyuWvh9xT9g-2" value="ESXI-8" style="sketch=0;aspect=fixed;pointerEvents=1;shadow=0;dashed=0;html=1;strokeColor=none;labelPosition=center;verticalLabelPosition=bottom;verticalAlign=top;align=center;fillColor=#00188D;shape=mxgraph.mscae.enterprise.server_generic" parent="1" vertex="1">
          <mxGeometry x="-280" y="360" width="24" height="50" as="geometry" />
        </mxCell>
        <mxCell id="vLjDbiqeGYyuWvh9xT9g-3" value="ESXI-7" style="sketch=0;aspect=fixed;pointerEvents=1;shadow=0;dashed=0;html=1;strokeColor=none;labelPosition=center;verticalLabelPosition=bottom;verticalAlign=top;align=center;fillColor=#00188D;shape=mxgraph.mscae.enterprise.server_generic" parent="1" vertex="1">
          <mxGeometry x="-13" y="360" width="24" height="50" as="geometry" />
        </mxCell>
        <mxCell id="vLjDbiqeGYyuWvh9xT9g-6" value="ESXI-6" style="sketch=0;aspect=fixed;pointerEvents=1;shadow=0;dashed=0;html=1;strokeColor=none;labelPosition=center;verticalLabelPosition=bottom;verticalAlign=top;align=center;fillColor=#00188D;shape=mxgraph.mscae.enterprise.server_generic" parent="1" vertex="1">
          <mxGeometry x="250" y="360" width="24" height="50" as="geometry" />
        </mxCell>
        <mxCell id="vLjDbiqeGYyuWvh9xT9g-9" value="" style="endArrow=none;html=1;rounded=0;exitX=0.5;exitY=0;exitDx=0;exitDy=0;exitPerimeter=0;entryX=0.5;entryY=1;entryDx=0;entryDy=0;entryPerimeter=0;" parent="1" source="vLjDbiqeGYyuWvh9xT9g-2" target="vLjDbiqeGYyuWvh9xT9g-1" edge="1">
          <mxGeometry width="50" height="50" relative="1" as="geometry">
            <mxPoint x="-40" y="410" as="sourcePoint" />
            <mxPoint x="10" y="360" as="targetPoint" />
          </mxGeometry>
        </mxCell>
        <mxCell id="vLjDbiqeGYyuWvh9xT9g-10" value="" style="endArrow=none;html=1;rounded=0;entryX=0.5;entryY=1;entryDx=0;entryDy=0;entryPerimeter=0;exitX=0.5;exitY=0;exitDx=0;exitDy=0;exitPerimeter=0;" parent="1" source="vLjDbiqeGYyuWvh9xT9g-3" target="vLjDbiqeGYyuWvh9xT9g-1" edge="1">
          <mxGeometry width="50" height="50" relative="1" as="geometry">
            <mxPoint x="-40" y="410" as="sourcePoint" />
            <mxPoint x="10" y="360" as="targetPoint" />
          </mxGeometry>
        </mxCell>
        <mxCell id="vLjDbiqeGYyuWvh9xT9g-11" value="" style="endArrow=none;html=1;rounded=0;entryX=0.5;entryY=1;entryDx=0;entryDy=0;entryPerimeter=0;exitX=0.5;exitY=0;exitDx=0;exitDy=0;exitPerimeter=0;" parent="1" source="vLjDbiqeGYyuWvh9xT9g-6" target="vLjDbiqeGYyuWvh9xT9g-1" edge="1">
          <mxGeometry width="50" height="50" relative="1" as="geometry">
            <mxPoint x="-40" y="410" as="sourcePoint" />
            <mxPoint x="10" y="360" as="targetPoint" />
          </mxGeometry>
        </mxCell>
        <mxCell id="vLjDbiqeGYyuWvh9xT9g-13" value="vmnic1&lt;br&gt;172.16.8.11" style="text;html=1;strokeColor=none;fillColor=none;align=center;verticalAlign=middle;whiteSpace=wrap;rounded=0;" parent="1" vertex="1">
          <mxGeometry x="-320" y="330" width="60" height="30" as="geometry" />
        </mxCell>
        <mxCell id="vLjDbiqeGYyuWvh9xT9g-17" value="vmnic1&lt;br&gt;172.16.6.11" style="text;html=1;strokeColor=none;fillColor=none;align=center;verticalAlign=middle;whiteSpace=wrap;rounded=0;" parent="1" vertex="1">
          <mxGeometry x="250" y="330" width="60" height="30" as="geometry" />
        </mxCell>
        <mxCell id="vLjDbiqeGYyuWvh9xT9g-18" value="vmnic1&lt;br&gt;172.16.7.11" style="text;html=1;strokeColor=none;fillColor=none;align=center;verticalAlign=middle;whiteSpace=wrap;rounded=0;" parent="1" vertex="1">
          <mxGeometry y="330" width="60" height="30" as="geometry" />
        </mxCell>
        <mxCell id="S-VgMTXi0rojGaED3WKQ-3" style="edgeStyle=orthogonalEdgeStyle;rounded=0;orthogonalLoop=1;jettySize=auto;html=1;exitX=0.5;exitY=1;exitDx=0;exitDy=0;" edge="1" parent="1" source="S-VgMTXi0rojGaED3WKQ-2" target="S-VgMTXi0rojGaED3WKQ-2">
          <mxGeometry relative="1" as="geometry" />
        </mxCell>
        <mxCell id="S-VgMTXi0rojGaED3WKQ-4" value="" style="shape=mxgraph.cisco.switches.workgroup_switch;html=1;pointerEvents=1;dashed=0;fillColor=#036897;strokeColor=#ffffff;strokeWidth=2;verticalLabelPosition=bottom;verticalAlign=top;align=center;outlineConnect=0;" vertex="1" parent="1">
          <mxGeometry x="-43.5" y="510" width="81.5" height="35" as="geometry" />
        </mxCell>
      </root>
    </mxGraphModel>
  </diagram>
</mxfile>
